<svg width="24.000000" height="24.000000" viewBox="0 0 24 24" fill="none" xmlns="http://www.w3.org/2000/svg" xmlns:xlink="http://www.w3.org/1999/xlink">
	<defs/>
	<path id="Vector" d="M11.88 12.78C10.12 12.72 8.71 11.28 8.71 9.51C8.71 7.69 10.17 6.22 12 6.22C13.8 6.22 15.28 7.69 15.28 9.51C15.27 11.28 13.88 12.72 12.12 12.78C12.04 12.77 11.96 12.77 11.88 12.78Z" stroke="#FFFFFF" stroke-opacity="1.000000" stroke-width="1.500000" stroke-linejoin="round"/>
	<path id="Vector" d="M12 22C9.4 22 7.04 21.01 5.26 19.37C5.35 18.44 5.95 17.52 7.03 16.79C9.77 14.98 14.25 14.98 16.96 16.79C18.04 17.52 18.64 18.44 18.74 19.37C16.95 21.01 14.6 22 12 22Z" stroke="#FFFFFF" stroke-opacity="1.000000" stroke-width="1.500000" stroke-linejoin="round"/>
	<path id="Vector" d="M12 22C6.47 22 2 17.52 2 12C2 6.47 6.47 2 12 2C17.52 2 22 6.47 22 12C22 17.52 17.52 22 12 22Z" stroke="#FFFFFF" stroke-opacity="1.000000" stroke-width="1.500000" stroke-linejoin="round"/>
	<g opacity="0.000000"/>
</svg>
