<svg width="24.000000" height="24.000000" viewBox="0 0 24 24" fill="none" xmlns="http://www.w3.org/2000/svg" xmlns:xlink="http://www.w3.org/1999/xlink">

	<defs/>
	<path id="Vector" d="M17.8 7.15C16.42 7.11 15.33 5.97 15.33 4.58C15.33 3.14 16.48 2 17.9 2C19.34 2 20.49 3.15 20.49 4.58C20.48 5.97 19.37 7.11 18 7.15C17.93 7.14 17.87 7.14 17.8 7.15Z" stroke="#FFFFFF" stroke-opacity="1.000000" stroke-width="1.500000" stroke-linejoin="round"/>
	<path id="Vector" d="M16.96 14.43C18.34 14.66 19.85 14.42 20.9 13.72C22.31 12.78 22.31 11.24 20.9 10.29C19.84 9.58 18.3 9.34 16.93 9.58" stroke="#FFFFFF" stroke-opacity="1.000000" stroke-width="1.500000" stroke-linejoin="round" stroke-linecap="round"/>
	<path id="Vector" d="M6.16 7.15C7.54 7.11 8.64 5.97 8.64 4.58C8.64 3.14 7.48 2 6.05 2C4.63 2 3.47 3.15 3.47 4.58C3.48 5.97 4.58 7.11 5.96 7.15C6.03 7.14 6.09 7.14 6.16 7.15Z" stroke="#FFFFFF" stroke-opacity="1.000000" stroke-width="1.500000" stroke-linejoin="round"/>
	<path id="Vector" d="M7 14.43C5.62 14.66 4.12 14.42 3.05 13.72C1.64 12.78 1.64 11.24 3.05 10.29C4.12 9.58 5.65 9.34 7.02 9.58" stroke="#FFFFFF" stroke-opacity="1.000000" stroke-width="1.500000" stroke-linejoin="round" stroke-linecap="round"/>
	<path id="Vector" d="M11.8 14.62C10.42 14.58 9.32 13.45 9.32 12.05C9.32 10.61 10.48 9.46 11.9 9.46C13.34 9.46 14.49 10.62 14.49 12.05C14.48 13.45 13.38 14.59 12 14.62C11.93 14.61 11.87 14.61 11.8 14.62Z" stroke="#FFFFFF" stroke-opacity="1.000000" stroke-width="1.500000" stroke-linejoin="round"/>
	<path id="Vector" d="M9.08 21.2C10.68 22.26 13.3 22.26 14.9 21.2C16.31 20.25 16.31 18.71 14.9 17.77C13.31 16.71 10.68 16.71 9.08 17.77C7.67 18.71 7.67 20.25 9.08 21.2Z" stroke="#FFFFFF" stroke-opacity="1.000000" stroke-width="1.500000" stroke-linejoin="round"/>
	<g opacity="0.000000"/>
</svg>
