<svg width="24.000000" height="24.000000" viewBox="0 0 24 24" fill="none" xmlns="http://www.w3.org/2000/svg" xmlns:xlink="http://www.w3.org/1999/xlink">

	<defs/>
	<path id="Vector" d="M8.57 15.27L15.11 8.72" stroke="#FFFFFF" stroke-opacity="1.000000" stroke-width="1.500000" stroke-linejoin="round" stroke-linecap="round"/>
	<path id="Vector" d="M8.97 10.36C8.3 10.36 7.75 9.81 7.75 9.13C7.75 8.46 8.3 7.9 8.97 7.9C9.65 7.9 10.21 8.46 10.21 9.13C10.21 9.81 9.65 10.36 8.97 10.36Z" stroke="#FFFFFF" stroke-opacity="1.000000" stroke-width="1.500000" stroke-linejoin="round"/>
	<path id="Vector" d="M15.52 16.08C14.84 16.08 14.29 15.53 14.29 14.85C14.29 14.18 14.84 13.62 15.52 13.62C16.19 13.62 16.75 14.18 16.75 14.85C16.75 15.53 16.19 16.08 15.52 16.08Z" stroke="#FFFFFF" stroke-opacity="1.000000" stroke-width="1.500000" stroke-linejoin="round"/>
	<path id="Vector" d="M12 22C6.47 22 2 17.52 2 12C2 6.47 6.47 2 12 2C17.52 2 22 6.47 22 12C22 17.52 17.52 22 12 22Z" stroke="#FFFFFF" stroke-opacity="1.000000" stroke-width="1.500000" stroke-linejoin="round"/>
	<g opacity="0.000000"/>
</svg>
