<svg width="35.000000" height="35.000000" viewBox="0 0 35 35" fill="none" xmlns="http://www.w3.org/2000/svg" xmlns:xlink="http://www.w3.org/1999/xlink">

	<defs>
		<clipPath id="clip234_4455">
			<rect id="Крестик" rx="-0.500000" width="34.000000" height="34.000000" transform="translate(0.500000 0.500000)" fill="white" fill-opacity="0"/>
		</clipPath>
	</defs>
	<rect id="Крестик" rx="-0.500000" width="34.000000" height="34.000000" transform="translate(0.500000 0.500000)" fill="#FFFFFF" fill-opacity="0"/>
	<g clip-path="url(#clip234_4455)">
		<path id="Vector" d="M10.32 9.36C10.07 9.12 9.73 8.99 9.38 9C9.04 9 8.7 9.14 8.46 9.39C8.21 9.64 8.07 9.97 8.06 10.32C8.06 10.67 8.19 11.01 8.42 11.27L15.09 17.96L8.42 24.66C8.29 24.78 8.19 24.93 8.11 25.1C8.04 25.26 8 25.44 8 25.62C7.99 25.8 8.03 25.98 8.09 26.15C8.16 26.32 8.26 26.47 8.39 26.6C8.52 26.73 8.67 26.83 8.84 26.9C9 26.96 9.18 27 9.36 26.99C9.54 26.99 9.72 26.95 9.89 26.88C10.05 26.8 10.2 26.7 10.32 26.57L17 19.87L23.67 26.57C23.79 26.7 23.94 26.8 24.1 26.88C24.27 26.95 24.45 26.99 24.63 26.99C24.81 27 24.99 26.96 25.15 26.9C25.32 26.83 25.47 26.73 25.6 26.6C25.73 26.47 25.83 26.32 25.9 26.15C25.96 25.98 26 25.8 26 25.62C25.99 25.44 25.95 25.26 25.88 25.1C25.8 24.93 25.7 24.78 25.57 24.66L18.9 17.96L25.57 11.27C25.8 11.01 25.93 10.67 25.93 10.32C25.92 9.97 25.78 9.64 25.53 9.39C25.29 9.14 24.96 9 24.61 9C24.26 8.99 23.92 9.12 23.67 9.36L17 16.05L10.32 9.36Z" fill="#000000" fill-opacity="1.000000" fill-rule="nonzero"/>
	</g>
</svg>
