<svg width="24.000000" height="24.000000" viewBox="0 0 24 24" fill="none" xmlns="http://www.w3.org/2000/svg" xmlns:xlink="http://www.w3.org/1999/xlink">
    <desc>
        Created with Pixso.
    </desc>
    <defs/>
    <path id="Vector" d="M13 5C13 4.44 12.55 4 12 4C11.45 4 11 4.44 11 5C11 5.55 11.45 6 12 6C12.55 6 13 5.55 13 5Z" fill="#033240" fill-opacity="1.000000" fill-rule="evenodd"/>
    <path id="Vector" d="M12 4C11.45 4 11 4.44 11 5C11 5.55 11.45 6 12 6C12.55 6 13 5.55 13 5C13 4.44 12.55 4 12 4Z" stroke="#033240" stroke-opacity="1.000000" stroke-width="1.500000"/>
    <path id="Vector" d="M13 19C13 18.45 12.55 18 12 18C11.45 18 11 18.45 11 19C11 19.54 11.45 20 12 20C12.55 20 13 19.54 13 19Z" fill="#033240" fill-opacity="1.000000" fill-rule="evenodd"/>
    <path id="Vector" d="M12 18C11.45 18 11 18.45 11 19C11 19.54 11.45 20 12 20C12.55 20 13 19.54 13 19C13 18.45 12.55 18 12 18Z" stroke="#033240" stroke-opacity="1.000000" stroke-width="1.500000"/>
    <path id="Vector" d="M13 12C13 11.45 12.55 11 12 11C11.45 11 11 11.45 11 12C11 12.55 11.45 13 12 13C12.55 13 13 12.55 13 12Z" fill="#033240" fill-opacity="1.000000" fill-rule="evenodd"/>
    <path id="Vector" d="M12 11C11.45 11 11 11.45 11 12C11 12.55 11.45 13 12 13C12.55 13 13 12.55 13 12C13 11.45 12.55 11 12 11Z" stroke="#033240" stroke-opacity="1.000000" stroke-width="1.500000"/>
    <g opacity="0.000000"/>
</svg>
