<svg width="24.000000" height="24.000000" viewBox="0 0 24 24" fill="none" xmlns="http://www.w3.org/2000/svg" xmlns:xlink="http://www.w3.org/1999/xlink">

	<defs/>
	<path id="Vector" d="M3.01 11.22L3.01 15.71C3.01 20.2 4.81 22 9.3 22L14.69 22C19.18 22 20.98 20.2 20.98 15.71L20.98 11.22" stroke="#FFFFFF" stroke-opacity="1.000000" stroke-width="1.500000" stroke-linejoin="round" stroke-linecap="round"/>
	<path id="Vector" d="M15 8.67L14.34 2L9.67 2L9 8.67C8.81 10.51 10.17 12 12 12C13.83 12 15.17 10.51 15 8.67Z" stroke="#FFFFFF" stroke-opacity="1.000000" stroke-width="1.500000" stroke-linejoin="round"/>
	<path id="Vector" d="M21.61 8.35L21.33 5.6C20.97 3 19.97 2 17.35 2L14.3 2L15 9.01C15.17 10.65 16.66 12 18.31 12C20.33 12 21.81 10.36 21.61 8.35Z" stroke="#FFFFFF" stroke-opacity="1.000000" stroke-width="1.500000" stroke-linejoin="round"/>
	<path id="Vector" d="M8.94 9.01L9.16 6.8L9.64 2L6.58 2C3.96 2 2.96 3 2.6 5.6L2.33 8.35C2.14 10.36 3.62 12 5.64 12C7.29 12 8.78 10.65 8.94 9.01Z" stroke="#FFFFFF" stroke-opacity="1.000000" stroke-width="1.500000" stroke-linejoin="round"/>
	<path id="Vector" d="M9.5 19.5L9.5 22L14.5 22L14.5 19.5C14.5 17.83 13.67 17 12 17C10.33 17 9.5 17.83 9.5 19.5Z" stroke="#FFFFFF" stroke-opacity="1.000000" stroke-width="1.500000" stroke-linejoin="round"/>
	<g opacity="0.000000"/>
</svg>
