<svg width="24.000000" height="24.000000" viewBox="0 0 24 24" fill="none" xmlns="http://www.w3.org/2000/svg" xmlns:xlink="http://www.w3.org/1999/xlink">
    <defs/>
    <path id="Vector" d="M11 2L9 2C4 2 2 4 2 9L2 15C2 20 4 22 9 22L15 22C20 22 22 20 22 15L22 13" stroke="#FFFFFF" stroke-opacity="1.000000" stroke-width="1.500000" stroke-linejoin="round" stroke-linecap="round"/>
    <path id="Vector" d="M8.16 10.89C7.85 11.2 7.56 11.79 7.5 12.22L7.06 15.23C6.91 16.32 7.68 17.08 8.77 16.92L11.78 16.5C12.2 16.43 12.79 16.13 13.1 15.84L20.98 7.95C22.34 6.6 22.98 5.02 20.98 3.02C18.98 1.02 17.4 1.65 16.04 3.02L8.16 10.89Z" stroke="#FFFFFF" stroke-opacity="1.000000" stroke-width="1.500000" stroke-linejoin="round"/>
    <path id="Vector" d="M14.91 4.14C15.58 6.53 17.45 8.4 19.85 9.08" stroke="#FFFFFF" stroke-opacity="1.000000" stroke-width="1.500000" stroke-linejoin="round" stroke-linecap="round"/>
    <g opacity="0.000000"/>
</svg>
