<svg width="24.000000" height="24.000000" viewBox="0 0 24 24" fill="none" xmlns="http://www.w3.org/2000/svg" xmlns:xlink="http://www.w3.org/1999/xlink">

	<defs/>
	<path id="Vector" d="M20.67 14.62C19.84 18.23 18.17 19.68 15.05 19.38C14.55 19.35 14.01 19.26 13.43 19.12L11.75 18.71C7.58 17.73 6.29 15.66 7.27 11.49L8.25 7.3C8.45 6.44 8.69 5.7 8.99 5.1C10.16 2.67 12.15 2.03 15.49 2.82L17.16 3.2C21.36 4.18 22.63 6.26 21.65 10.43L20.67 14.62Z" stroke="#FFFFFF" stroke-opacity="1.000000" stroke-width="1.500000" stroke-linejoin="round"/>
	<path id="Vector" d="M12.71 20.47L11.13 20.99C7.16 22.27 5.06 21.2 3.78 17.23L2.5 13.28C1.21 9.31 2.28 7.21 6.25 5.93L7.82 5.41C8.23 5.28 8.63 5.17 9 5.1C8.69 5.71 8.45 6.45 8.26 7.3L7.28 11.49C6.29 15.67 7.58 17.73 11.76 18.72L13.43 19.12C14.02 19.26 14.55 19.35 15.05 19.39C14.43 19.81 13.66 20.16 12.71 20.47Z" stroke="#FFFFFF" stroke-opacity="1.000000" stroke-width="1.500000" stroke-linejoin="round"/>
	<path id="Vector" d="M12.64 8.53L17.49 9.76" stroke="#FFFFFF" stroke-opacity="1.000000" stroke-width="1.500000" stroke-linejoin="round" stroke-linecap="round"/>
	<path id="Vector" d="M11.66 12.39L14.56 13.13" stroke="#FFFFFF" stroke-opacity="1.000000" stroke-width="1.500000" stroke-linejoin="round" stroke-linecap="round"/>
	<g opacity="0.000000"/>
</svg>
